<svg version="1.1" xmlns="http://www.w3.org/2000/svg" viewBox="0 0 2048 1079" width="1000" height="527"
  preserveAspectRatio="none" display="block">

  <defs>
    <linearGradient id="primaryGrad" x1="0%" y1="0%" x2="100%" y2="100%">
      <stop offset="0%" stop-color="#8C7DFF" />
      <stop offset="100%" stop-color="#6B5BFF" />
    </linearGradient>
  </defs>
  <path fill="rgb(17,14,21)"
    d="M 554.332 686.882 C 547.299 694.265 540.775 700.977 533.131 707.8 C 472.952 761.916 393.788 789.994 312.959 785.893 C 230.43 781.656 153.094 744.326 98.4385 682.344 C -15.6762 553.763 -2.74196 360.913 125.71 246.751 C 249.613 136.632 446.271 146.273 556.583 271.375 C 540.072 270.056 525.629 268.741 508.989 269.804 C 478.221 272.067 462.977 274.902 433.429 286.318 L 419.367 292.638 C 404.789 300.736 388.912 310.546 376.566 321.799 L 367.743 329.89 C 358.141 339.799 350.44 350.135 342.039 361.033 C 340.555 363.648 336.162 371.86 334.682 373.891 C 302.286 437.241 297.151 519.331 334.809 581.743 C 337.849 586.375 339.603 589.166 342.12 594.185 C 352.02 607.627 357.314 614.341 369.457 626.139 L 378.141 634.235 C 392.609 645.965 405.323 653.675 422.014 662.212 C 425.301 663.784 432.395 667.432 435.51 668.541 C 456.433 676.551 486.949 685.272 509.33 686.238 C 524.365 687.324 539.28 687.224 554.332 686.882 z"
    data-c-fill="110000000000000000" />
  <path fill="url(#primaryGrad)"
    d="M 328.614 227.253 C 363.664 246.743 398.603 266.431 433.429 286.318 L 419.367 292.638 C 404.789 300.736 388.912 310.546 376.566 321.799 L 367.743 329.89 C 358.141 339.799 350.44 350.135 342.039 361.033 C 340.555 363.648 336.162 371.86 334.682 373.891 C 302.286 437.241 297.151 519.331 334.809 581.743 C 337.849 586.375 339.603 589.166 342.12 594.185 C 352.02 607.627 357.314 614.341 369.457 626.139 L 378.141 634.235 C 392.609 645.965 405.323 653.675 422.014 662.212 C 425.301 663.784 432.395 667.432 435.51 668.541 C 433.437 670.369 410.062 683.417 405.27 685.989 C 379.946 699.585 353.418 716.428 327.813 728.859 C 313.861 722.049 297.123 711.822 283.341 703.917 L 198.95 655.061 L 141.913 622.262 C 132.994 617.122 117.867 608.901 110.13 603.093 C 109.609 591.509 109.551 578.885 109.758 567.246 C 111.023 495.904 108.898 422.866 112.171 351.684 C 118.852 345.278 179.431 311.604 190.835 305.311 C 236.188 280.284 283.058 250.992 328.614 227.253 z"
    data-c-fill="6f5bd8" />
  <path fill="rgb(17,14,21)"
    d="M268.668 372.918C278.798 373.078 328.785 372.038 334.682 373.891 302.286 437.241 297.151 519.331 334.809 581.743 329.872 582.492 317.313 582.225 311.807 582.235 297.373 582.225 282.94 582.296 268.507 582.448 250.957 551.974 223.997 508.788 208.896 478.539 228.085 444.194 248.586 406.542 268.668 372.918zM275.087 594.388C297.43 594.082 319.776 594.015 342.12 594.185 352.02 607.627 357.314 614.341 369.457 626.139 365.044 632.398 357.275 648.528 353.639 655.835 345.269 672.974 336.7 690.015 327.933 706.955 324.015 700.029 320.251 692.481 317.036 685.207 303.711 655.054 287.135 624.942 275.087 594.388zM274.791 360.982C292.502 324.091 310.447 287.313 328.627 250.651 341.058 272.864 356.175 306.295 367.743 329.89 358.141 339.799 350.44 350.135 342.039 361.033L274.791 360.982zM339.998 709.052C351.659 689.441 360.544 665.258 371.9 645.197 374.095 641.32 375.237 637.821 378.141 634.235 392.609 645.965 405.323 653.675 422.014 662.212 413.357 668.168 399.205 675.842 389.944 681.111 373.416 690.639 356.766 699.953 339.998 709.052zM340.765 248.295C353.928 254.552 369.872 264.061 382.901 271.149 392.72 276.49 410.995 286.336 419.367 292.638 404.789 300.736 388.912 310.546 376.566 321.799 365.548 297.976 352.258 272.41 340.765 248.295zM123.364 372.637C129.447 377.333 186.64 466.566 194.451 478.632 183.039 496.93 165.668 520.589 153.112 538.711 143.052 553.26 132.632 568.918 121.939 582.884 121.494 515.857 121.305 439.589 123.364 372.637zM260.293 594.497 262.072 594.943C278.957 632.484 297.841 671.127 315.487 708.454 291.173 695.887 262.178 678.07 238.091 664.108 203.594 644.391 169.206 624.482 134.929 604.384 171.973 600.257 222.586 596.713 260.293 594.497zM316.013 247.954C315.806 252.404 267.305 349.141 261.737 361.157 253.238 359.494 240.841 359.501 231.948 358.426 205.078 355.178 174.651 354.859 148.127 350.918 145.874 350.815 140.756 349.923 138.301 349.568 155.898 337.536 187.458 320.776 206.552 309.927 242.873 288.977 279.361 268.319 316.013 247.954zM131.669 361.999C172.933 364.808 213.782 369.199 254.957 372.269 243.754 392.811 232.395 413.269 220.882 433.639L201.838 467.821C195.84 460.68 184.006 441.539 178.496 433.146L131.669 361.999zM201.406 489.708C202.834 491.259 215.136 513.058 216.992 516.289L255.597 583.258C232.479 585.618 205.302 586.525 181.266 588.582 164.517 589.763 147.76 590.843 130.998 591.823 137.974 580.472 148.959 565.565 156.701 554.345 171.469 532.707 186.371 511.161 201.406 489.708z"
    data-c-fill="110000000000000000" />
  <path fill="url(#primaryGrad)"
    d="M 554.332 686.882 C 547.299 694.265 540.775 700.977 533.131 707.8 C 472.952 761.916 393.788 789.994 312.959 785.893 C 230.43 781.656 153.094 744.326 98.4385 682.344 C -15.6762 553.763 -2.74196 360.913 125.71 246.751 C 249.613 136.632 446.271 146.273 556.583 271.375 C 540.072 270.056 525.629 268.741 508.989 269.804 C 503.812 257.608 445.126 227.228 431.684 221.768 C 364.242 194.981 289.021 195.504 221.958 223.225 C 154.074 252.063 100.39 306.636 72.67 374.984 C 45.0599 442.773 45.6067 518.77 74.1892 586.154 C 103.709 654.681 159.436 708.536 228.931 735.7 C 295.769 761.557 370.046 760.391 436.04 732.448 C 456.674 723.507 493.49 702.94 509.33 686.238 C 524.365 687.324 539.28 687.224 554.332 686.882 z"
    data-c-fill="6f5bd8" />

  <path fill="rgb(76,90,111)" fill-rule="evenodd"
    d="M 1326.96 335.383 C 1334.49 334.473 1353.21 334.576 1360.51 335.155 C 1398.55 337.943 1433.9 355.81 1458.7 384.785 C 1488.8 420.344 1498.56 463.498 1494.9 509.231 C 1488.09 594.238 1414.99 654 1330.4 645.283 C 1285.62 640.668 1257.96 624.263 1229.34 590.005 C 1229.25 601.703 1229.38 613.539 1229.43 625.25 L 1229.48 750.316 L 1185.99 750.235 L 1186.01 338.467 L 1227.57 338.545 C 1228.02 356.295 1227.6 375.089 1227.75 393.025 L 1231.31 388.389 C 1256.62 355.718 1286.22 340.556 1326.96 335.383 z M 1338.83 375.719 C 1402.13 374.418 1454.49 424.691 1455.77 487.992 C 1457.05 551.293 1406.76 603.641 1343.46 604.9 C 1280.19 606.158 1227.87 555.897 1226.59 492.625 C 1225.31 429.353 1275.56 377.019 1338.83 375.719 z"
    data-c-fill="4c5a6f" />

  <path fill="url(#primaryGrad)" fill-rule="evenodd"
    d="M 504.05 310.411 C 512.91 309.088 528.591 309.496 537.266 309.815 C 608.959 312.456 671.664 359.48 688.3 430.295 C 694.955 458.627 694.067 476.935 692.875 505.78 L 443.107 505.789 C 444.345 509.841 446.071 514.698 447.774 518.577 C 472.368 574.585 552.106 582.631 599.274 552.435 C 606.65 547.713 612.269 542.599 618.573 536.599 L 635.831 554.317 C 647.074 565.537 662.781 580.371 672.852 592.104 C 640.955 626.853 605.614 643.205 558.559 647.257 C 502.383 651.685 446.819 639.951 403.033 603.443 C 333.955 545.846 329.758 434.775 387.108 367.826 C 415.925 334.186 459.848 313.79 504.05 310.411 z M 513.638 384.339 C 560.684 379.769 590.527 404.834 602.019 449.083 C 580.565 449.825 554.315 449.137 532.5 449.143 L 442.305 449.004 C 453.992 410.991 473.146 390.312 513.638 384.339 z"
    data-c-fill="4c2297" />

  <path fill="url(#primaryGrad)"
    d="M 965.995 213.497 L 1037.13 213.465 C 1016.67 239.833 995.022 271.6 975.258 299.104 L 852.334 469.993 C 889.573 470.649 928.444 470.078 965.812 470.077 C 965.463 442.743 965.706 414.861 965.666 387.482 C 997.178 387.893 1029.28 387.587 1060.84 387.581 L 1060.86 470.007 C 1082.62 470.413 1105.83 470.052 1127.68 470.053 C 1127.45 497.635 1127.41 525.218 1127.57 552.801 L 1075.5 552.905 L 1060.78 552.864 L 1060.79 643.119 L 963.772 643.215 L 963.859 552.846 L 732.054 552.848 L 732.094 485.921 L 931.624 213.634 L 965.995 213.497 z"
    data-c-fill="4c2297" />
  <path fill="rgb(76,90,111)"
    d="M1688.93 338.417 1740.03 338.587C1767.63 376.206 1800.67 417.281 1829.53 454.535 1860.02 416.423 1889.8 376.934 1920.08 338.511L1970.56 338.472C1957.8 353.198 1943.55 372.267 1931.35 387.798L1855.04 484.982C1894.49 537.629 1938.8 590.611 1977.17 643.255L1959.5 643.149 1926.31 643.222C1896.75 602.269 1860.38 557.348 1829.35 516.774 1818.72 528.997 1805.03 547.983 1794.91 561.147L1731.7 643.201 1681.23 643.126C1720.07 592.458 1763.17 534.997 1803.42 485.818 1777.93 454.204 1753.65 421.321 1728.36 389.516 1715.06 372.786 1701.6 355.618 1688.93 338.417zM1576.31 338.424 1619.32 338.658 1619.11 643.137 1576.23 643.155 1576.31 338.424z"
    data-c-fill="4c5a6f" />

  <path fill="rgb(76,34,151)" fill-rule="evenodd"
    d="M 1529.03 867.294 C 1561.9 861.555 1593.25 883.427 1599.2 916.262 C 1605.16 949.097 1583.49 980.582 1550.7 986.753 C 1517.59 992.983 1485.75 971.071 1479.74 937.929 C 1473.73 904.787 1495.85 873.087 1529.03 867.294 z M 1530.12 887.371 C 1552.1 882.188 1574.11 895.863 1579.2 917.867 C 1584.29 939.872 1570.52 961.82 1548.49 966.815 C 1526.6 971.78 1504.81 958.112 1499.75 936.24 C 1494.7 914.368 1508.27 892.523 1530.12 887.371 z"
    data-c-fill="4c2297" />

  <path fill="rgb(76,34,151)" fill-rule="evenodd"
    d="M 862.127 869.131 C 890.224 868.996 933.744 863.615 955.776 884.018 C 980.055 906.503 979.639 944.175 957.457 968.464 C 934.611 990.526 892.988 985.021 862.156 985.075 L 862.127 869.131 z M 882.777 887.777 C 900.817 887.529 926.473 884.757 940.723 897.101 C 957.375 911.526 956.464 938.996 942.579 955.095 C 924.613 970.11 905.653 966.49 882.824 966.267 L 882.777 887.777 z"
    data-c-fill="4c2297" />

  <path fill="rgb(76,34,151)" fill-rule="evenodd"
    d="M 350.379 869.088 C 386.58 868.903 455.85 858.92 444.731 920.557 C 442.551 932.64 432.064 940.102 422.153 946.058 C 431.093 959.227 439.911 971.547 448.564 985.017 L 434.504 985.036 C 431.325 985.146 430.37 985.186 427.146 984.641 C 420.132 979.875 407.802 958.37 402.127 950.042 L 371.022 950.07 L 370.921 984.93 L 350.461 985.002 C 348.958 950.483 350.463 904.629 350.379 869.088 z M 371.052 887.707 C 382.066 887.459 398.603 886.132 408.88 888.684 C 426.332 893.017 429.636 912.467 418.835 925.281 C 406.052 934.241 387.087 931.851 370.98 931.935 L 371.052 887.707 z"
    data-c-fill="4c2297" />

  <path fill="rgb(76,34,151)" fill-rule="evenodd"
    d="M 1885.77 869.069 C 1921.29 869.08 1989.92 858.81 1979.06 920.439 C 1976.95 932.385 1967.47 939.795 1957.48 945.755 C 1960.73 951.456 1964.3 957.516 1968.58 962.451 L 1969.29 964.182 C 1973.07 969.456 1979.69 978.189 1982.39 983.652 C 1981.76 984.602 1981.87 984.815 1981.09 985.191 C 1974.02 985.101 1961.97 986.929 1957.84 981.764 C 1953.25 973.564 1942.55 958.384 1937.02 949.974 L 1906.19 950.02 C 1906.38 961.49 1906.2 973.399 1906.18 984.909 L 1885.86 984.971 L 1885.77 869.069 z M 1906.27 887.841 C 1926.67 887.312 1945.98 882.541 1958.78 901.043 C 1959.59 912.274 1960.47 916.805 1953.05 925.617 C 1940.45 934.17 1921.67 931.951 1906.21 931.869 L 1906.27 887.841 z"
    data-c-fill="4c2297" />

  <path fill="rgb(76,34,151)"
    d="M 1969.29 964.182 C 1973.07 969.456 1979.69 978.189 1982.39 983.652 C 1981.76 984.602 1981.87 984.815 1981.09 985.191 C 1975.43 980.986 1969.38 971.277 1969.29 964.182 z"
    data-c-fill="4c2297" />

  <path fill="rgb(76,34,151)" fill-rule="evenodd"
    d="M675.769 869.066 694.274 869.031C704.182 898.451 713.85 927.951 723.276 957.529 732.686 928.912 743.489 897.744 751.926 869.081L772.543 869.086C770.591 875.465 768.462 881.913 766.429 888.278 756.078 916.046 743.488 956.337 734.755 984.956L712.754 984.95C711.861 981.564 710.81 978.248 709.648 974.947 700.886 950.071 693.311 924.776 684.528 899.909 678.335 925.123 665.11 958.847 657.278 984.958L635.644 984.963C623.217 946.692 610.395 907.121 597.301 869.153L618.823 869.137C628.131 897.812 639.06 928.057 647.195 956.873 655.551 932.248 669.37 893.449 675.769 869.066zM1634.98 869.067C1651.64 869.088 1678.55 867.46 1693.99 869.843 1742.05 877.261 1745.76 938.675 1693.5 949.846 1681.76 950.677 1667.61 950.271 1655.68 950.223L1655.83 984.923 1634.99 985.031 1634.98 869.067z M 1655.76 887.708 C 1673.73 888.025 1706.45 881.583 1709.56 906.188 C 1710.55 914.069 1708.82 919.229 1704.18 925.504 C 1690.24 934.485 1672.74 931.924 1655.87 931.721 L 1655.76 887.708 z"
    data-c-fill="4c2297" />

  <path fill="rgb(76,34,151)" fill-rule="evenodd"
    d="M 516.041 869.022 L 537.466 869.012 L 590.357 984.932 L 568.247 985.035 C 564.058 975.948 560.004 966.799 556.086 957.591 L 537.75 957.779 C 524.364 957.859 510.978 957.832 497.593 957.699 C 493.933 966.858 490.058 975.93 485.97 984.907 L 464.469 985.104 C 467.859 975.637 473.312 965.641 477.16 956.291 C 488.588 928.516 505.746 896.725 516.041 869.022 z M 526.476 891.639 C 528.579 893.295 545.806 934.471 548.39 940.277 L 527.933 940.379 L 505.591 940.154 C 512.456 923.941 519.418 907.769 526.476 891.639 z"
    data-c-fill="4c2297" />

  <path fill="rgb(76,34,151)"
    d="M1255.38 869.093 1340.16 869.078 1340.16 887.534C1318.76 887.433 1297.37 887.445 1275.98 887.57 1276.12 897.389 1276.06 907.343 1276.08 917.175L1332.91 917.002 1332.96 934.997 1278.77 935.067 1277.06 935.411C1275.29 938.948 1275.95 960.838 1275.99 966.75 1298.28 966.576 1320.57 966.57 1342.87 966.734L1342.75 984.955 1255.23 985.006 1255.38 869.093zM1007.33 869.084 1091.64 869.054 1091.79 887.519 1027.75 887.542 1027.95 917.15C1046.58 916.828 1065.88 917.067 1084.56 917.05L1084.55 935.046 1030.75 935.002 1029.25 935.148C1026.72 938.342 1027.82 961.012 1027.88 966.598 1049.94 966.377 1072.01 966.42 1094.07 966.726L1094.12 984.926 1007.35 985.042 1007.33 869.084zM1763.73 869.117 1848.32 869.092 1848.26 887.436C1826.87 887.545 1805.48 887.54 1784.1 887.421 1784.24 897.24 1784.11 907.299 1784.09 917.139L1841.08 917.091 1841.08 934.958 1787.75 935.004C1787.25 935.014 1785.55 935.497 1784.96 935.649 1783.38 939.81 1784.12 960.96 1784.18 966.721 1806.47 966.563 1828.76 966.572 1851.04 966.748L1851.06 984.944 1763.77 985.087 1763.73 869.117zM1111.3 869.17 1133.19 869.053C1146.75 897.853 1158.08 929.159 1171.68 958.154L1210.36 869.106 1231.44 869.195C1229.03 875.144 1226.23 881.333 1223.66 887.251L1181.01 985.052 1161.45 985.067C1159.01 980.238 1156.68 974.82 1154.6 969.787 1140.72 936.196 1124.67 902.908 1111.3 869.17zM1377.74 869.078 1398.15 869.082 1398.17 966.24C1418.48 966.472 1438.79 966.57 1459.1 966.533L1459.07 984.975 1377.69 984.98C1378.16 946.61 1377.76 907.504 1377.74 869.078z"
    data-c-fill="4c2297" />
  <path fill="rgb(76,90,111)"
    d="M 1592.74 213.931 C 1603.95 212.132 1615.26 216.524 1622.32 225.417 C 1629.38 234.311 1631.09 246.321 1626.79 256.83 C 1622.49 267.338 1612.85 274.709 1601.59 276.106 C 1584.59 278.215 1569.04 266.318 1566.63 249.362 C 1564.22 232.407 1575.83 216.645 1592.74 213.931 z"
    data-c-fill="4c5a6f" />
</svg>